<svg width="16" height="16" viewBox="0 0 16 16" fill="none" xmlns="http://www.w3.org/2000/svg">
<path fill-rule="evenodd" clip-rule="evenodd" d="M8 1C4.13401 1 1 4.13401 1 8C1 11.866 4.13401 15 8 15C11.866 15 15 11.866 15 8C15 4.13401 11.866 1 8 1ZM0 8C0 3.58172 3.58172 0 8 0C12.4183 0 16 3.58172 16 8C16 12.4183 12.4183 16 8 16C3.58172 16 0 12.4183 0 8Z" fill="white"/>
<path d="M7 4.5C7 4.22386 7.22386 4 7.5 4C7.77614 4 8 4.22386 8 4.5V8.5C8 8.77614 7.77614 9 7.5 9C7.22386 9 7 8.77614 7 8.5V4.5Z" fill="white"/>
<path d="M7.5 9C7.22386 9 7 8.77614 7 8.5C7 8.22386 7.22386 8 7.5 8L10.5 8C10.7761 8 11 8.22386 11 8.5C11 8.77614 10.7761 9 10.5 9L7.5 9Z" fill="white"/>
</svg>
