<svg width="18" height="13" viewBox="0 0 18 13" fill="none" xmlns="http://www.w3.org/2000/svg">
<path fill-rule="evenodd" clip-rule="evenodd" d="M8.09995 6.94998L0.699951 1.39998L1.29995 0.599976L8.69995 6.14998C8.87773 6.28331 9.12217 6.28331 9.29995 6.14998L16.7 0.599976L17.2999 1.39998L9.89995 6.94998C9.36661 7.34998 8.63329 7.34998 8.09995 6.94998Z" fill="white"/>
<path fill-rule="evenodd" clip-rule="evenodd" d="M2 1C1.44772 1 1 1.44772 1 2V11C1 11.5523 1.44772 12 2 12H16C16.5523 12 17 11.5523 17 11V2C17 1.44772 16.5523 1 16 1H2ZM0 2C0 0.89543 0.89543 0 2 0H16C17.1046 0 18 0.89543 18 2V11C18 12.1046 17.1046 13 16 13H2C0.89543 13 0 12.1046 0 11V2Z" fill="white"/>
</svg>
