<svg width="14" height="14" viewBox="0 0 14 14" fill="none" xmlns="http://www.w3.org/2000/svg">
<path d="M13.9762 7.12253L13.9643 7.12881L11.9558 1.85054H12.8723C13.0366 1.85054 13.1698 1.70986 13.1698 1.53636C13.1698 1.36285 13.0366 1.22217 12.8723 1.22217H7.27226V0.314183C7.27226 0.140675 7.13903 0 6.97471 0C6.81038 0 6.67715 0.140675 6.67715 0.314183V1.21903H1.08013C0.915802 1.21903 0.782572 1.35971 0.782572 1.53321C0.782572 1.70672 0.915802 1.8474 1.08013 1.8474H2.03528L0.0238045 7.12253C0.00892667 7.15933 0.000855473 7.1988 0 7.23878C0 8.68159 1.10773 9.85121 2.47418 9.85121C3.84063 9.85121 4.94835 8.68159 4.94835 7.23878C4.9475 7.1988 4.93943 7.15933 4.92455 7.12253L2.91605 1.84425H6.67715V11.5588C5.25781 11.6719 4.14793 12.583 4.14793 13.6858C4.14793 13.8593 4.28116 14 4.44548 14H9.50393C9.66826 14 9.80149 13.8593 9.80149 13.6858C9.80149 12.583 8.69161 11.6719 7.27226 11.5588V1.84425H11.0721L9.07545 7.12253C9.06057 7.15933 9.0525 7.1988 9.05165 7.23878C9.05165 8.68159 10.1594 9.85121 11.5258 9.85121C12.8923 9.85121 14 8.68159 14 7.23878C13.9991 7.1988 13.9911 7.15933 13.9762 7.12253ZM2.47269 9.22756C1.55108 9.22622 0.766206 8.51986 0.618916 7.55925H4.31456C4.16801 8.51519 3.38979 9.2201 2.47269 9.22756ZM4.20744 6.93088H0.74389L2.47864 2.37208L4.20744 6.93088ZM9.15282 13.3716H4.79362C5.01382 12.6961 5.92136 12.1746 6.97173 12.1746C8.0221 12.1746 8.93263 12.6961 9.15282 13.3716ZM11.5124 2.37522L13.2412 6.93088H9.77768L11.5124 2.37522ZM11.5124 9.22756V9.2307C10.5944 9.22296 9.81581 8.51644 9.67056 7.55925H13.3662C13.2189 8.51986 12.434 9.22622 11.5124 9.22756Z" fill="black"/>
</svg>
