<svg width="14" height="14" viewBox="0 0 14 14" fill="none" xmlns="http://www.w3.org/2000/svg">
<path fill-rule="evenodd" clip-rule="evenodd" d="M5.66659 11C2.72107 11 0.333252 8.61223 0.333252 5.66671C0.333252 2.72119 2.72107 0.333374 5.66659 0.333374C8.6121 0.333374 10.9999 2.72119 10.9999 5.66671C10.9999 6.89918 10.5819 8.034 9.87983 8.93712L13.4713 12.5286L12.5285 13.4714L8.93703 9.87994C8.0339 10.582 6.89907 11 5.66659 11ZM9.66659 5.66671C9.66659 7.87585 7.87572 9.66671 5.66659 9.66671C3.45745 9.66671 1.66659 7.87585 1.66659 5.66671C1.66659 3.45757 3.45745 1.66671 5.66659 1.66671C7.87572 1.66671 9.66659 3.45757 9.66659 5.66671Z" fill="black"/>
</svg>
