<svg style="display: none;" aria-hidden="true" xmlns="http://www.w3.org/2000/svg" xmlns:xlink="http://www.w3.org/1999/xlink"><symbol viewBox="0 0 28 30" fill="none" id="svg-cart"><path d="M6.21007 6.95988H25.7121C26.3649 6.95988 26.8427 7.57518 26.681 8.20761L25.141 14.2302C24.8014 15.5581 23.6051 16.487 22.2345 16.487H7.8608M0 1.49957H3.83163C4.81484 1.49957 5.65222 2.21422 5.80677 3.18521L8.36735 19.2733C8.52189 20.2443 9.35928 20.959 10.3425 20.959H24.5639M13.6374 26.5538C13.6374 27.6379 12.7973 28.4692 11.8186 28.4692 10.8399 28.4692 9.99976 27.6379 9.99976 26.5538 9.99976 25.4697 10.8399 24.6385 11.8186 24.6385 12.7973 24.6385 13.6374 25.4697 13.6374 26.5538zM24.94 26.5538C24.94 27.6379 24.0999 28.4692 23.1212 28.4692 22.1425 28.4692 21.3024 27.6379 21.3024 26.5538 21.3024 25.4697 22.1425 24.6385 23.1212 24.6385 24.0999 24.6385 24.94 25.4697 24.94 26.5538z" stroke="#fff" stroke-width="1.5"/></symbol><symbol viewBox="0 0 92 60" fill="none" id="svg-delivery"><path d="M85.6998 25.4361L83.3691 15.6109C84.0063 15.4683 84.4845 14.8725 84.4845 14.1587V12.5746C84.4845 9.13506 81.8293 6.33693 78.5659 6.33693H67.9501V3.06935C67.9501 1.37684 66.6437 0 65.0377 0H10.9248C9.31884 0 8.01243 1.37684 8.01243 3.06935V30.0003C8.01243 30.8204 8.64331 31.4855 9.42167 31.4855C10.1999 31.4855 10.8309 30.8206 10.8309 30.0003V3.06935C10.8309 3.0147 10.8729 2.97042 10.9248 2.97042H65.0376C65.0894 2.97042 65.1314 3.0147 65.1314 3.06935V30.0007C65.1314 30.8208 65.7623 31.4859 66.5407 31.4859C67.3189 31.4859 67.9499 30.821 67.9499 30.0007V28.317H84.5734C84.5748 28.317 84.5759 28.3174 84.5771 28.3174C84.5785 28.3174 84.5797 28.3172 84.581 28.3172C86.6265 28.3187 88.3634 29.7337 88.96 31.6835H84.5781C83.8 31.6835 83.1689 32.3484 83.1689 33.1687V36.337C83.1689 38.903 85.1496 40.9905 87.5844 40.9905H89.1815V47.5251H85.4968C84.2863 43.8416 80.9639 41.1884 77.0624 41.1884C73.161 41.1884 69.8383 43.8416 68.6281 47.5251H67.9496V36.3368C67.9496 35.5167 67.3187 34.8516 66.5403 34.8516C65.7621 34.8516 65.1311 35.5165 65.1311 36.3368V47.5247H35.8937C34.6832 43.8413 31.3608 41.188 27.4593 41.188C23.5579 41.188 20.2352 43.8413 19.025 47.5247H10.9248C10.8729 47.5247 10.8309 47.4805 10.8309 47.4258V44.1584H16.9374C17.7156 44.1584 18.3466 43.4935 18.3466 42.6732C18.3466 41.8529 17.7158 41.188 16.9374 41.188H3.40924C2.63106 41.188 2 41.8529 2 42.6732C2 43.4935 2.63088 44.1584 3.40924 44.1584H8.01261V47.4258C8.01261 49.1183 9.31902 50.4952 10.925 50.4952H18.537C18.5367 50.5281 18.5345 50.5609 18.5345 50.5941C18.5345 55.7806 22.5383 60 27.4593 60C32.3803 60 36.3841 55.7806 36.3841 50.5941C36.3841 50.5607 36.382 50.5281 36.3816 50.4952H68.1401C68.1398 50.5281 68.1376 50.5609 68.1376 50.5941C68.1376 55.7806 72.1414 60 77.0624 60C81.9834 60 85.9872 55.7806 85.9872 50.5941C85.9872 50.5607 85.9851 50.5281 85.9847 50.4952H90.5908C91.3689 50.4952 92 49.8303 92 49.01V33.1684C92.0002 29.2572 89.262 26.0076 85.6998 25.4361ZM67.9501 9.30717H78.5659C80.2754 9.30717 81.6662 10.7729 81.6662 12.5746V12.6735H67.9501V9.30717ZM67.9501 25.3468V15.6437H80.4719L82.7736 25.3468H67.9501ZM27.4593 57.0301C24.0922 57.0301 21.3528 54.1433 21.3528 50.5945C21.3528 47.0457 24.0922 44.1588 27.4593 44.1588C30.8264 44.1588 33.5658 47.0457 33.5658 50.5945C33.5658 54.1433 30.8264 57.0301 27.4593 57.0301ZM77.0628 57.0301C73.6957 57.0301 70.9563 54.1433 70.9563 50.5945C70.9563 47.0457 73.6957 44.1588 77.0628 44.1588C80.4299 44.1588 83.1693 47.0457 83.1693 50.5945C83.1693 54.1433 80.4299 57.0301 77.0628 57.0301ZM89.1819 38.0201H87.5847C86.7041 38.0201 85.9876 37.265 85.9876 36.3368V34.6536H89.1817V38.0201H89.1819Z" fill="#fff"/><path d="M27.5 48C26.1214 48 25 49.1214 25 50.5 25 51.8786 26.1214 53 27.5 53 28.8786 53 30 51.8786 30 50.5 30 49.1214 28.8786 48 27.5 48zM77.1035 48C75.725 48 74.6035 49.1214 74.6035 50.5 74.6035 51.8786 75.725 53 77.1035 53 78.4821 53 79.6035 51.8786 79.6035 50.5 79.6035 49.1214 78.4821 48 77.1035 48zM34.4531 37H13.4092C12.6311 37 12 37.6788 12 38.5162 12 39.3536 12.6309 40.0324 13.4092 40.0324H34.4531C35.2313 40.0324 35.8624 39.3536 35.8624 38.5162 35.8624 37.6788 35.2315 37 34.4531 37zM19.4469 33H1.40924C.631056 33 0 33.6788 0 34.5162 0 35.3536.63088 36.0324 1.40924 36.0324H19.4469C20.2251 36.0324 20.8561 35.3536 20.8561 34.5162 20.8561 33.6788 20.2251 33 19.4469 33zM51.0027 14.999C50.4525 14.407 49.5601 14.407 49.0099 14.9992L36.4781 28.482 29.9588 21.468C29.4085 20.8758 28.5162 20.8758 27.966 21.468 27.4156 22.0601 27.4156 23.0199 27.966 23.6121L35.4817 31.6983C35.7568 31.9944 36.1175 32.1423 36.4781 32.1423 36.8386 32.1423 37.1995 31.9944 37.4744 31.6983L51.0025 17.1433C51.5529 16.5509 51.5529 15.5911 51.0027 14.999z" fill="#fff"/></symbol><symbol viewBox="0 0 67 66" fill="none" id="svg-discounts"><path d="M66.1878 36.6958C65.8135 35.362 65.4611 34.1012 65.4611 32.9508C65.4611 31.8004 65.8135 30.5397 66.1878 29.2059C66.7835 27.0827 67.3981 24.8865 66.6626 22.7518C65.8995 20.5312 63.9974 19.08 62.158 17.6788C61.0555 16.8379 60.0141 16.0442 59.3383 15.1703C58.6509 14.2792 58.1645 13.0901 57.6518 11.8308C56.8056 9.76204 55.9318 7.62167 53.9744 6.27785C52.049 4.95408 49.6459 4.82658 47.3259 4.7048C45.8782 4.62887 44.5092 4.55581 43.363 4.20481C42.2911 3.87674 41.1813 3.19623 40.0074 2.47561C38.1185 1.31517 35.9761 0 33.4988 0C31.0214 0 28.879 1.31517 26.9901 2.47704C25.8162 3.19766 24.7093 3.8796 23.636 4.20624C22.4883 4.55724 21.1193 4.63031 19.6716 4.70624C17.3501 4.82944 14.9499 4.95552 13.0231 6.27928C11.0657 7.6231 10.1919 9.76204 9.34568 11.8308C8.83011 13.0901 8.34367 14.2806 7.65625 15.1717C6.98047 16.0485 5.93914 16.8422 4.83664 17.6846C2.99866 19.0871 1.0995 20.5355 0.336341 22.7533C-0.399145 24.8893 0.215459 27.0841 0.809674 29.2088C1.18397 30.5425 1.53642 31.8018 1.53642 32.9523C1.53642 34.1027 1.18397 35.3634 0.809674 36.6972C0.215459 38.8204 -0.399145 41.0166 0.336341 43.1541C1.0995 45.3718 3.00011 46.8231 4.8381 48.2242C5.9406 49.0638 6.98193 49.8589 7.65625 50.7328C8.34513 51.6239 8.83157 52.813 9.34568 54.0737C10.1919 56.1425 11.0672 58.2828 13.026 59.6295C14.9499 60.9504 17.3516 61.0765 19.6716 61.1983C21.1193 61.2742 22.4883 61.3473 23.6345 61.6983C24.7064 62.0263 25.8147 62.7068 26.9872 63.426C28.8776 64.585 31.0199 65.9016 33.4988 65.9016C35.9776 65.9016 38.1214 64.585 40.0133 63.4246C41.1857 62.7054 42.2925 62.0249 43.3659 61.6968C44.5121 61.3458 45.8811 61.2728 47.3288 61.1968C49.6503 61.0751 52.0505 60.949 53.9744 59.6281C55.9362 58.2814 56.81 56.1382 57.6562 54.068C58.1703 52.8101 58.6553 51.621 59.3398 50.7328C60.0156 49.8589 61.0569 49.0638 62.1594 48.2242C63.9988 46.8217 65.8995 45.3718 66.6641 43.1527C67.3996 41.0152 66.7835 38.8204 66.1878 36.6958ZM63.904 42.2344C63.4219 43.6355 61.9408 44.7644 60.3737 45.9592C59.1721 46.8761 57.9284 47.8245 57.0196 48.9993C56.0977 50.197 55.5151 51.621 54.9515 53.0007C54.2334 54.76 53.5548 56.4204 52.3066 57.2771C51.0629 58.131 49.1739 58.2298 47.1728 58.3344C45.6101 58.4161 43.992 58.5006 42.4977 58.959C41.069 59.3989 39.7466 60.2083 38.4693 60.9934C36.758 62.045 35.1429 63.0364 33.4986 63.0364C31.8543 63.0364 30.2406 62.045 28.5293 60.9934C27.2535 60.2097 25.9325 59.3989 24.5023 58.959C23.0081 58.502 21.39 58.4161 19.8273 58.3344C17.8262 58.2298 15.9357 58.1295 14.6934 57.2771C13.4467 56.4204 12.7666 54.76 12.0486 53.0021C11.485 51.6225 10.9009 50.197 9.97758 48.9993C9.07024 47.8245 7.82647 46.8761 6.62347 45.9578C5.05783 44.763 3.57812 43.6355 3.09605 42.2344C2.64602 40.9292 3.11935 39.2416 3.6189 37.4565C4.0267 35.9966 4.44906 34.4895 4.44906 32.9494C4.44906 31.4093 4.0267 29.9036 3.6189 28.4437C3.1179 26.6586 2.64602 24.9724 3.09605 23.6673C3.57812 22.2662 5.05638 21.1387 6.62202 19.9438C7.82501 19.0255 9.07024 18.0757 9.97612 16.8995C10.9024 15.7018 11.485 14.2749 12.05 12.8952C12.7666 11.1374 13.4453 9.47838 14.6905 8.62452C15.9343 7.76923 17.8262 7.67038 19.8287 7.56579C21.39 7.4827 23.0081 7.39818 24.5009 6.93973C25.9325 6.50134 27.2549 5.68903 28.5337 4.90394C30.242 3.85668 31.8557 2.86529 33.4986 2.86529C35.1414 2.86529 36.7566 3.85668 38.4664 4.90681C39.7451 5.69333 41.0661 6.50421 42.4977 6.9426C43.9905 7.39961 45.6071 7.48413 47.1699 7.56723C49.1724 7.67181 51.0629 7.77353 52.3066 8.62738C53.5533 9.48411 54.232 11.1431 54.9485 12.8981C55.5136 14.2792 56.0947 15.7046 57.021 16.9023C57.9284 18.0771 59.1721 19.0255 60.3737 19.9424C61.9408 21.1387 63.4219 22.2676 63.904 23.6716C64.354 24.9739 63.8792 26.6601 63.3797 28.4452C62.9704 29.905 62.5481 31.4122 62.5481 32.9523C62.5481 34.4923 62.969 35.9995 63.3797 37.4579C63.8809 39.243 64.354 40.9292 63.904 42.2344Z" fill="#fff"/><path d="M33.5012 10.0081C20.6182 10.0081 10.1748 20.2816 10.1748 32.9538C10.1748 45.6266 20.6182 55.8996 33.5012 55.8996C46.3836 55.8996 56.8276 45.6266 56.8276 32.9538C56.8135 20.2869 46.3782 10.022 33.5012 10.0081ZM33.5012 53.7143C21.845 53.7143 12.3964 44.4198 12.3964 32.9538C12.3964 21.4884 21.845 12.1934 33.5012 12.1934C45.1568 12.1934 54.606 21.4884 54.606 32.9538C54.593 44.4144 45.1514 53.702 33.5012 53.7143Z" fill="#fff"/><path d="M22.7183 42.0151L42.7123 22.3474 44.2835 23.8924 24.289 43.5608 22.7183 42.0151zM40.1658 35.1392C37.7115 35.1392 35.7227 37.0961 35.7227 39.5098 35.7227 41.9239 37.7115 43.8804 40.1658 43.8804 42.6195 43.8804 44.6089 41.9239 44.6089 39.5098 44.6089 37.0961 42.6195 35.1392 40.1658 35.1392zM40.1658 41.6951C38.9389 41.6951 37.9442 40.7166 37.9442 39.5098 37.9442 38.3029 38.9389 37.3245 40.1658 37.3245 41.3927 37.3245 42.3874 38.3029 42.3874 39.5098 42.3874 40.7166 41.3927 41.6951 40.1658 41.6951zM26.8367 30.7685C29.2904 30.7685 31.2798 28.812 31.2798 26.3979 31.2798 23.9842 29.2904 22.0273 26.8367 22.0273 24.3824 22.0273 22.3936 23.9842 22.3936 26.3979 22.3936 28.812 24.3824 30.7685 26.8367 30.7685zM26.8367 24.2126C28.0636 24.2126 29.0583 25.191 29.0583 26.3979 29.0583 27.6047 28.0636 28.5832 26.8367 28.5832 25.6098 28.5832 24.6151 27.6047 24.6151 26.3979 24.6151 25.191 25.6098 24.2126 26.8367 24.2126z" fill="#fff"/></symbol><symbol viewBox="0 0 141 32" fill="none" id="svg-logo"><path fill-rule="evenodd" clip-rule="evenodd" d="M71.1807 28.4625C71.1807 28.4625 72.0164 28.0574 73.4823 27.5122C74.2376 27.8735 75.8929 28.626 77.4958 29.0891C79.6653 29.7157 81.1114 29.6192 83.1361 29.6192C85.1606 29.6192 88.0531 29.2818 88.0531 29.2818C88.0531 29.2818 87.6193 27.6912 87.571 26.5342C87.523 25.377 87.523 25.1843 87.523 25.1843C87.523 25.1843 87.0889 26.8234 87.1854 27.6912C87.2818 28.5587 87.2818 28.8481 87.2818 28.8481C87.2818 28.8481 83.4735 29.2338 80.774 28.9444C78.0744 28.6552 76.4353 28.3658 75.2784 27.9803C74.6409 27.7677 74.0328 27.5847 73.6152 27.463C75.6603 26.71 78.8608 25.7124 82.702 25.1363C89.4508 24.1238 88.1011 24.4612 88.1011 24.4612C88.1011 24.4612 88.2458 24.1721 89.1134 24.0758C89.9812 23.9793 98.8512 23.5455 101.599 23.7382C104.347 23.9309 111.915 24.3168 113.024 25.0398C114.133 25.7629 114.567 26.486 114.229 28.2695C113.892 30.0533 113.217 31.7889 112.59 31.403C111.964 31.0173 109.843 29.3785 107.818 29.0891C105.793 28.7999 103.575 28.8481 102.66 29.0891C101.744 29.3303 100.201 30.2943 99.478 30.0533C98.755 29.8124 97.3088 28.4625 96.1518 28.9446C94.9949 29.4267 94.9466 29.5712 94.4163 30.246C93.8862 30.9211 93.1629 31.6924 92.5845 30.9693C92.0059 30.246 90.9454 29.9086 90.0294 29.8604C89.1136 29.8124 88.2941 30.1016 88.0531 30.3425C87.812 30.5837 87.4745 31.0656 87.4745 31.0656C87.4745 31.0656 85.9802 30.6802 84.2446 30.8729C82.5093 31.0656 79.5206 31.2103 77.4958 30.8246C75.4711 30.439 71.1807 28.4625 71.1807 28.4625ZM89.4028 29.0408C89.4028 29.0408 91.3313 28.7034 92.0544 29.2335C92.7774 29.7639 92.9219 30.1978 94.2236 29.1373C95.5253 28.0766 96.3446 27.3053 97.7909 28.0766C99.2371 28.8481 99.9121 29.33 101.31 28.607C102.708 27.8839 105.745 27.1126 108.3 28.1731C110.855 29.2336 112.832 30.9209 113.217 29.8604C113.603 28.7997 113.796 27.6427 111.819 27.209C109.843 26.7752 106.902 26.293 104.203 26.7269C101.503 27.1608 101.021 28.414 99.9121 28.0766C98.8032 27.7392 97.5982 26.7269 96.2483 27.2571C94.8984 27.7874 93.7415 29.4265 92.6327 28.8961C91.524 28.366 90.7527 27.8839 90.0779 28.2213C89.4028 28.5587 89.4028 29.0408 89.4028 29.0408Z" fill="#fff"/><path d="M1.12942.25439V7.42317H1.45965C1.48515 7.01224 1.5487 6.59689 1.65468 6.18179 1.75625 5.76228 1.88751 5.35994 2.05285 4.97429 2.21379 4.59281 2.40024 4.24565 2.61196 3.93189 2.81975 3.62276 3.0484 3.37254 3.29028 3.17751 3.46815 3.02955 3.6968 2.88949 3.98065 2.75406 4.2645 2.6184 4.60354 2.50824 4.99754 2.4236 5.39595 2.33455 5.84932 2.29212 6.366 2.28795H11.7554L.41748 17.8968.468266 18.0494H16.8653V9.81268H16.5349C16.5094 10.279 16.4625 10.7533 16.3948 11.2322 16.3229 11.711 16.2255 12.1772 16.0984 12.6303 15.967 13.0837 15.8016 13.5032 15.5985 13.893 15.3951 14.2786 15.1493 14.6133 14.8568 14.8971 14.4883 15.2403 14.0985 15.4903 13.6918 15.6515 13.2808 15.8124 12.8741 15.914 12.4629 15.9564 12.0564 16.0031 11.6666 16.0198 11.2979 16.0156H5.70508L16.9924.406757 16.8653.25439H1.12942zM21.9751 15.2023C21.9792 15.4096 21.9709 15.6216 21.9456 15.8419 21.9243 16.0622 21.8649 16.2825 21.7761 16.4945 21.687 16.7064 21.5386 16.9054 21.3396 17.0835 21.1488 17.24 20.9373 17.3632 20.6954 17.4437 20.4584 17.5285 20.2126 17.5877 19.9585 17.6215 19.7041 17.6554 19.4627 17.6806 19.2296 17.6936L18.7975 17.7189V18.0494H36.6433V10.321H36.3128L36.2368 11.1095C36.1985 11.5288 36.1392 11.9441 36.0631 12.3675 35.9824 12.7871 35.8553 13.1938 35.6733 13.5878 35.4952 13.9862 35.2327 14.3505 34.8894 14.6938 34.7835 14.8039 34.6267 14.9354 34.4233 15.0834 34.2197 15.2318 33.9616 15.376 33.6437 15.5156 33.326 15.6598 32.9445 15.7784 32.4997 15.8718 32.0547 15.9648 31.538 16.0114 30.949 16.0156H25.1273V3.10144C25.1231 2.95302 25.1315 2.76681 25.1572 2.5465 25.1783 2.3262 25.2375 2.09732 25.3265 1.86008 25.42 1.62262 25.5637 1.41112 25.7629 1.22027 25.9452 1.05933 26.157.940584 26.3984.860346 26.6444.77547 26.8942.716116 27.1527.682027 27.4069.648401 27.6485.622878 27.873.610123L28.3053.58485V.25439H18.7975V.58485L19.2296.610123C19.4543.622878 19.6957.648401 19.9543.682027 20.2082.716116 20.4584.77547 20.704.860346 20.9457.940584 21.1576 1.05933 21.3396 1.22027 21.5386 1.41112 21.687 1.62262 21.7761 1.86008 21.8649 2.09732 21.9243 2.3262 21.9456 2.5465 21.9709 2.76681 21.9792 2.95302 21.9751 3.10144V15.2023zM46.024 0L40.482 13.3719C40.2958 13.8081 40.1262 14.181 39.9737 14.4862 39.8211 14.7912 39.6898 15.0455 39.5755 15.2487 39.4609 15.4479 39.3635 15.6091 39.2875 15.7359 39.2068 15.8718 39.0924 16.0369 38.9526 16.2234 38.8127 16.4096 38.6349 16.6004 38.4188 16.7952 38.2068 16.9861 37.9529 17.1598 37.6519 17.3124 37.3553 17.4648 37.012 17.5749 36.618 17.6429L36.135 17.7189V18.0494H45.2615V17.7189L44.6258 17.6681C44.3761 17.6512 44.1089 17.6087 43.8251 17.541 43.5412 17.4733 43.2743 17.3673 43.0199 17.2275 42.766 17.0877 42.554 16.9054 42.3889 16.6765 42.253 16.4861 42.16 16.2616 42.1051 15.9989 42.0541 15.7403 42.0369 15.4732 42.0626 15.1981 42.0835 14.9271 42.1429 14.6727 42.2363 14.4396L43.2024 12.0754H49.7103L50.8543 14.8719C50.922 15.0284 50.9772 15.1981 51.0279 15.3843 51.0787 15.575 51.104 15.7575 51.1084 15.9395 51.104 16.3166 51.0321 16.6174 50.8881 16.8377 50.7483 17.0622 50.566 17.2275 50.3459 17.3377 50.2311 17.4054 50.0915 17.4603 49.9306 17.5028 49.7694 17.5452 49.5749 17.5835 49.3374 17.6129 49.1002 17.6429 48.8077 17.6681 48.4647 17.6936L48.0833 17.7189V18.0494H58.0488V17.7189L57.6418 17.6936C57.341 17.6765 57.0442 17.6257 56.752 17.541 56.4598 17.4603 56.1926 17.3544 55.947 17.2275 55.6971 17.1004 55.4935 16.9562 55.3283 16.8041 55.1802 16.6556 55.0359 16.4606 54.9005 16.2234 54.7606 15.982 54.6081 15.664 54.4344 15.2659 54.2648 14.8719 54.0529 14.3677 53.8031 13.7532L48.1851 0H46.024zM49.0749 10.2957H43.8378L46.431 4.04204H46.4817L49.0749 10.2957zM65.7261 2.28795H67.6073C67.7555 2.28377 67.9422 2.29212 68.1667 2.30928 68.3911 2.32621 68.6325 2.36007 68.8953 2.41943 69.158 2.47439 69.4205 2.56321 69.6833 2.68218 69.9502 2.80509 70.196 2.97019 70.4291 3.17751 70.641 3.37254 70.8316 3.6311 71.0053 3.95739 71.1746 4.28344 71.3275 4.64382 71.4543 5.03782 71.5858 5.43599 71.6916 5.83881 71.7723 6.24534 71.8525 6.65209 71.9035 7.03752 71.929 7.39789H72.2595V.25439H56.0405V7.39789H56.371C56.3962 7.03752 56.4512 6.65209 56.5319 6.24534 56.6082 5.83881 56.714 5.43599 56.8452 5.03782 56.9725 4.64382 57.1249 4.28344 57.2988 3.95739 57.4683 3.6311 57.6589 3.37254 57.8707 3.17751 58.1037 2.97019 58.3496 2.80509 58.6162 2.68218 58.8792 2.56321 59.142 2.47439 59.4047 2.41943 59.6672 2.36007 59.9089 2.32621 60.1333 2.30928 60.3578 2.29212 60.5443 2.28377 60.6927 2.28795H62.5739V15.2023C62.5781 15.3505 62.5697 15.5369 62.544 15.7575 62.5229 15.9778 62.4637 16.2065 62.3747 16.4437 62.2858 16.6765 62.1374 16.8926 61.9382 17.0835 61.756 17.24 61.5442 17.3632 61.3028 17.4437 61.0568 17.5285 60.807 17.5835 60.5526 17.6215 60.2943 17.6554 60.0526 17.6765 59.8282 17.6936L59.3959 17.7189V18.0494H68.9036V17.7189L68.4716 17.6936C68.2469 17.6765 68.0055 17.6554 67.7513 17.6215 67.493 17.5835 67.2427 17.5285 66.9972 17.4437 66.7555 17.3632 66.544 17.24 66.3615 17.0835 66.1625 16.8926 66.0183 16.6765 65.9251 16.4437 65.8363 16.2065 65.7769 15.9778 65.7556 15.7575 65.7303 15.5369 65.7219 15.3505 65.7261 15.2023V2.28795zM98.1135.25439H90.487L85.733 12.3297H85.6569L80.9029.25439H72.9714V.58485L73.4037.610123C73.6282.622878 73.8696.648401 74.1281.682027 74.3821.716116 74.6323.77547 74.8779.860346 75.1195.940584 75.3315 1.05933 75.5135 1.22027 75.7125 1.41112 75.8609 1.62262 75.95 1.86008 76.0388 2.09732 76.0981 2.3262 76.1195 2.5465 76.1448 2.76681 76.1531 2.95302 76.1489 3.10144V14.6938C76.1531 14.8888 76.1406 15.1258 76.1153 15.4055 76.0898 15.6851 76.0304 15.969 75.9374 16.253 75.8484 16.5369 75.7041 16.7783 75.5135 16.9819 75.3484 17.1429 75.1365 17.2741 74.8867 17.3759 74.6365 17.4775 74.3779 17.5538 74.1154 17.6046 73.8485 17.6554 73.6113 17.685 73.4037 17.6936L72.9714 17.7189V18.0494H81.5386V17.7189L81.1063 17.6936C80.8988 17.685 80.6615 17.6554 80.3946 17.6046 80.1319 17.5538 79.8735 17.4775 79.6233 17.3759 79.3735 17.2741 79.1616 17.1429 78.9965 16.9819 78.8439 16.8249 78.7251 16.6429 78.6403 16.4309 78.5514 16.2192 78.4881 16.0031 78.4499 15.7784 78.4116 15.558 78.3863 15.3505 78.3736 15.1599 78.365 14.9648 78.3608 14.8125 78.3608 14.6938V2.7202H78.4371L84.4874 18.0494H85.6569L91.7072 2.7202H91.7835V15.2023C91.7877 15.3505 91.7793 15.5369 91.7538 15.7575 91.7327 15.9778 91.6775 16.2065 91.5843 16.4437 91.4953 16.6765 91.3471 16.8926 91.1479 17.0835 90.9658 17.24 90.7539 17.3632 90.5125 17.4437 90.2667 17.5285 90.0167 17.5835 89.7625 17.6215 89.5039 17.6554 89.2625 17.6765 89.0378 17.6936L88.6058 17.7189V18.0494H98.1135V17.7189L97.6813 17.6936C97.4568 17.6765 97.2153 17.6554 96.961 17.6215 96.7024 17.5835 96.4526 17.5285 96.2112 17.4437 95.9652 17.3632 95.7534 17.24 95.5712 17.0835 95.372 16.8926 95.2282 16.6765 95.1347 16.4437 95.0461 16.2065 94.9865 15.9778 94.9654 15.7575 94.9443 15.5369 94.9314 15.3505 94.936 15.2023V3.10144C94.9314 2.95302 94.9443 2.76681 94.9654 2.5465 94.9865 2.3262 95.0461 2.09732 95.1347 1.86008 95.2282 1.62262 95.372 1.41112 95.5712 1.22027 95.7534 1.05933 95.9652.940584 96.2112.860346 96.4526.77547 96.7024.716116 96.961.682027 97.2153.648401 97.4568.622878 97.6813.610123L98.1135.58485V.25439zM107.443 0L101.901 13.3719C101.715 13.8081 101.545 14.181 101.393 14.4862 101.24 14.7912 101.109 15.0455 100.995 15.2487 100.88 15.4479 100.783 15.6091 100.707 15.7359 100.626 15.8718 100.512 16.0369 100.372 16.2234 100.232 16.4096 100.054 16.6004 99.8379 16.7952 99.626 16.9861 99.372 17.1598 99.071 17.3124 98.7744 17.4648 98.4315 17.5749 98.0375 17.6429L97.5542 17.7189V18.0494H106.681V17.7189L106.045 17.6681C105.795 17.6512 105.528 17.6087 105.244 17.541 104.96 17.4733 104.693 17.3673 104.439 17.2275 104.185 17.0877 103.973 16.9054 103.808 16.6765 103.672 16.4861 103.579 16.2616 103.524 15.9989 103.473 15.7403 103.456 15.4732 103.482 15.1981 103.503 14.9271 103.562 14.6727 103.656 14.4396L104.622 12.0754H111.129L112.273 14.8719C112.341 15.0284 112.396 15.1981 112.447 15.3843 112.498 15.575 112.523 15.7575 112.528 15.9395 112.523 16.3166 112.451 16.6174 112.307 16.8377 112.167 17.0622 111.985 17.2275 111.765 17.3377 111.65 17.4054 111.511 17.4603 111.35 17.5028 111.189 17.5452 110.994 17.5835 110.757 17.6129 110.519 17.6429 110.227 17.6681 109.884 17.6936L109.502 17.7189V18.0494H119.468V17.7189L119.061 17.6936C118.76 17.6765 118.463 17.6257 118.171 17.541 117.879 17.4603 117.612 17.3544 117.366 17.2275 117.116 17.1004 116.913 16.9562 116.748 16.8041 116.599 16.6556 116.455 16.4606 116.32 16.2234 116.18 15.982 116.027 15.664 115.854 15.2659 115.684 14.8719 115.472 14.3677 115.222 13.7532L109.604 0H107.443zM110.494 10.2957H105.257L107.85 4.04204H107.901L110.494 10.2957zM118.553.25439V.58485L119.036.686647C119.345.758536 119.663.89398 119.989 1.08901 120.315 1.28381 120.629 1.50828 120.929 1.76685 121.23 2.02542 121.498 2.28377 121.73 2.54211L127.603 9.07569 122.645 14.8464C122.561 14.9523 122.438 15.0792 122.286 15.2318 122.133 15.3843 121.963 15.5455 121.786 15.7106 121.604 15.876 121.434 16.0286 121.269 16.1682 121.108 16.3083 120.972 16.4184 120.866 16.4987 120.468 16.7911 120.036 17.0452 119.57 17.253 119.108 17.4603 118.65 17.6173 118.197 17.7189V18.0494H128.188V17.7189L127.577 17.6681C127.099 17.6257 126.73 17.5705 126.467 17.5072 126.209 17.4392 126.035 17.3926 125.95 17.3632 125.768 17.2952 125.599 17.2106 125.438 17.0963 125.277 16.9861 125.141 16.846 125.04 16.6682 124.938 16.4945 124.887 16.2783 124.883 16.0156 124.887 15.8166 124.942 15.6091 125.044 15.3888 125.146 15.1685 125.26 14.9648 125.391 14.7786 125.522 14.5922 125.633 14.4438 125.722 14.3378L128.95 10.5754 132.433 14.4141C132.615 14.6091 132.785 14.8125 132.946 15.02 133.107 15.2318 133.242 15.4437 133.344 15.664 133.445 15.8802 133.496 16.1005 133.501 16.3208 133.496 16.5708 133.429 16.7783 133.293 16.9437 133.162 17.1046 132.984 17.2359 132.763 17.3377 132.531 17.452 132.259 17.5369 131.959 17.5921 131.658 17.647 131.357 17.6806 131.06 17.6936L130.323 17.7189V18.0494H141V17.7189C140.721 17.685 140.415 17.6129 140.089 17.5028 139.758 17.3926 139.411 17.2189 139.043 16.9819 138.581 16.6598 138.132 16.2742 137.704 15.8166 137.276 15.363 136.822 14.863 136.348 14.3125L130.933 8.26195 134.365 4.29643C134.611 4.01258 134.869 3.71159 135.14 3.38948 135.416 3.06737 135.708 2.75406 136.022 2.44887 136.331 2.14392 136.67 1.86865 137.034 1.62678 137.259 1.483 137.505 1.34294 137.78 1.21191 138.056 1.08066 138.344.970501 138.644.87287 138.941.775471 139.233.703358 139.526.66092L140.034.58485V.25439H129.814V.58485L130.45.635646C130.916.673678 131.297.741373 131.594.834597 131.89.928053 132.119 1.04239 132.28 1.16947 132.467 1.30931 132.602 1.4619 132.679 1.63142 132.755 1.80511 132.793 1.99552 132.789 2.21165 132.785 2.46605 132.751 2.69051 132.679 2.89365 132.611 3.09309 132.526 3.2668 132.425 3.4194 132.323 3.57199 132.225 3.70323 132.128 3.81338L129.586 6.78777 125.976 2.77098C125.84 2.61839 125.743 2.48298 125.692 2.36424 125.641 2.24574 125.616 2.13559 125.62 2.03378 125.616 1.83875 125.662 1.64836 125.768 1.46191 125.87 1.27523 126.056 1.11012 126.332.966106 126.463.906507 126.616.851537 126.794.805156 126.972.758544 127.154.720288 127.336.690836 127.518.665327 127.683.644227 127.832.635646L128.416.58485V.25439H118.553zM.365245 26.4279C.474239 26.3595.594824 26.2971.726776 26.2389.858728 26.1814.998102 26.1348 1.14466 26.0998 1.29239 26.0638 1.44196 26.0462 1.59293 26.0446 1.8035 26.0446 1.98763 26.081 2.1444 26.1522 2.30256 26.2245 2.4243 26.3291 2.51266 26.4671 2.59985 26.6065 2.64484 26.776 2.64647 26.9764 2.64484 27.1273 2.61005 27.2679 2.53886 27.3987 2.46906 27.529 2.37051 27.6422 2.24435 27.7409 2.11959 27.8395 1.97302 27.9165 1.80466 27.9717 1.63815 28.0267 1.45657 28.0545 1.26201 28.0559H.922511V28.6305H1.27059C1.42202 28.6305 1.57275 28.6407 1.72349 28.6637 1.87562 28.6855 2.01964 28.7231 2.156 28.7752 2.29096 28.8279 2.4127 28.8974 2.51868 28.9842 2.62466 29.0714 2.70885 29.1787 2.76961 29.3063 2.83199 29.4341 2.86259 29.5867 2.86399 29.7622 2.86399 29.9781 2.81181 30.1699 2.70885 30.3366 2.60426 30.505 2.45329 30.6355 2.25478 30.7313 2.05418 30.8257 1.81208 30.8749 1.52313 30.8767 1.35964 30.8749 1.19685 30.8575 1.03568 30.8241.873345 30.7907.72075 30.7471.578826 30.6938.434815 30.64.308896 30.5818.199902 30.5194L0 31.1116C.228887 31.245.474245 31.3435.73699 31.4048.999271 31.4653 1.26502 31.4961 1.53217 31.4945 1.7483 31.4945 1.95864 31.4743 2.16457 31.4333 2.37212 31.3927 2.56483 31.3303 2.74525 31.245 2.92637 31.1594 3.08452 31.0493 3.22251 30.9155 3.36002 30.7805 3.46762 30.6212 3.54578 30.434 3.62416 30.2469 3.66336 30.0319 3.66475 29.7884 3.65918 29.505 3.59494 29.2602 3.47018 29.0514 3.34542 28.8425 3.17706 28.6741 2.96278 28.5494 2.74781 28.4246 2.50431 28.3476 2.22858 28.3168V28.2998C2.4577 28.2458 2.66223 28.1514 2.84334 28.0181 3.02515 27.8845 3.17033 27.7191 3.27585 27.5216 3.38183 27.3247 3.43563 27.1055 3.43865 26.8632 3.43563 26.5599 3.36304 26.3013 3.2181 26.0882 3.07293 25.8751 2.87257 25.7109 2.61447 25.5977 2.3559 25.4848 2.0572 25.428 1.71468 25.4268 1.39419 25.428 1.10524 25.4704.848525 25.5497.593433 25.6314.365242 25.7369.165343 25.8707L.365245 26.4279zM5.08375 25.5309V28.0037C5.08538 28.24 5.08073 28.484 5.06914 28.7335 5.05893 28.983 5.03714 29.224 5.00374 29.4573 4.96919 29.691 4.91817 29.9016 4.8486 30.0901 4.77903 30.2784 4.68627 30.4296 4.57008 30.5456 4.4975 30.6168 4.40776 30.6817 4.29737 30.7415 4.18676 30.7997 4.0722 30.8387 3.95184 30.8591L4.04761 31.4683C4.16241 31.4672 4.27395 31.4539 4.38595 31.4266 4.49611 31.4001 4.60047 31.3654 4.69787 31.3231 4.7948 31.2812 4.87898 31.2376 4.95296 31.1898 5.11575 31.0766 5.25072 30.9331 5.35925 30.7603 5.46685 30.5862 5.55242 30.3904 5.61596 30.1729 5.6802 29.9538 5.72797 29.7212 5.75835 29.4747 5.79036 29.2265 5.81053 28.9744 5.81934 28.7147 5.82954 28.4547 5.83395 28.198 5.83233 27.9425V26.1668H7.76523V31.3987H8.5312V25.5309H5.08375zM12.8754 29.5533L13.5023 31.3987H14.3118L12.3096 25.5309H11.4042L9.40176 31.3987H10.1854L10.7946 29.5533H12.8754zM10.9513 28.9612L11.526 27.2637C11.5867 27.0838 11.6405 26.9052 11.6872 26.7252 11.7349 26.5467 11.7799 26.3711 11.8221 26.2014H11.8393C11.8815 26.3697 11.9281 26.5441 11.9759 26.7211 12.0239 26.8978 12.0802 27.0807 12.1438 27.272L12.7275 28.9612H10.9513zM16.2876 31.3987H17.0536V26.1754H18.8473V25.5309H14.5034V26.1754H16.2876V31.3987zM21.8676 25.4268C21.4746 25.428 21.1119 25.5008 20.7826 25.6459 20.4516 25.7909 20.1659 25.9984 19.9225 26.2681 19.6785 26.5395 19.49 26.8632 19.3562 27.2405 19.2212 27.6192 19.1532 28.0413 19.1516 28.5088 19.1532 28.9538 19.217 29.3585 19.3448 29.7242 19.4726 30.0887 19.6523 30.4032 19.886 30.6678 20.1198 30.9317 20.3983 31.1346 20.7202 31.2781 21.0423 31.4205 21.3978 31.4931 21.7895 31.4945 22.09 31.4945 22.3771 31.4509 22.6485 31.3653 22.9198 31.2812 23.1695 31.1534 23.3956 30.9853 23.6222 30.8169 23.8195 30.6096 23.9861 30.3601 24.1533 30.1119 24.2841 29.8246 24.375 29.4978 24.4663 29.1713 24.5129 28.8061 24.5143 28.404 24.5129 27.9643 24.4506 27.564 24.3272 27.2013 24.204 26.8372 24.0266 26.5235 23.7947 26.2596 23.564 25.9943 23.2855 25.7895 22.9606 25.6459 22.6369 25.5019 22.2716 25.428 21.8676 25.4268zM21.8417 26.0446C22.0942 26.0462 22.3205 26.0912 22.5211 26.1814 22.7227 26.2698 22.8966 26.3929 23.0462 26.5483 23.1958 26.7048 23.3205 26.885 23.4191 27.0879 23.5178 27.2911 23.5918 27.5088 23.641 27.7379 23.6888 27.9687 23.7136 28.2024 23.7136 28.439 23.7136 28.7741 23.6716 29.089 23.5888 29.3821 23.5058 29.6752 23.384 29.9331 23.2247 30.1567 23.0635 30.3802 22.8676 30.5558 22.6338 30.6836 22.4006 30.8095 22.1334 30.8737 21.8331 30.8767 21.5921 30.8749 21.3735 30.8331 21.1759 30.7501 20.9785 30.6659 20.8044 30.5497 20.6522 30.4006 20.4996 30.2511 20.3719 30.0755 20.2689 29.8768 20.1645 29.6764 20.0859 29.4589 20.0326 29.224 19.9804 28.989 19.9526 28.7449 19.9526 28.4912 19.9526 28.2344 19.9774 27.9849 20.0284 27.7451 20.0773 27.5058 20.1532 27.2825 20.2543 27.0766 20.3547 26.8718 20.4809 26.6918 20.6316 26.5369 20.7826 26.3829 20.9597 26.2626 21.1615 26.1765 21.363 26.0898 21.5891 26.0462 21.8417 26.0446zM24.8538 25.5309L26.8039 29.5009C26.8387 29.5693 26.8605 29.6286 26.8663 29.6824 26.8718 29.7358 26.8605 29.794 26.8301 29.858 26.7823 29.964 26.7241 30.0755 26.6546 30.1901 26.5848 30.3062 26.5036 30.4134 26.4092 30.5152 26.3148 30.6168 26.2075 30.6979 26.0871 30.7617 25.9665 30.8241 25.8301 30.8575 25.6808 30.8591 25.6159 30.8591 25.5607 30.8575 25.5141 30.8531 25.4675 30.8489 25.4283 30.8415 25.3935 30.8331L25.3239 31.4509C25.3719 31.4683 25.4299 31.4815 25.4978 31.4901 25.5674 31.4987 25.6516 31.5031 25.7504 31.5031 26.0101 31.5031 26.2499 31.4423 26.4674 31.3217 26.6847 31.2 26.8881 31.0203 27.0736 30.7805 27.1782 30.6441 27.28 30.4904 27.3769 30.3165 27.4757 30.1421 27.5701 29.9579 27.6615 29.7622 27.7531 29.5662 27.8414 29.3659 27.9256 29.1627 28.0109 28.9582 28.0923 28.7583 28.171 28.5607L29.407 25.5309H28.6058L27.6833 28.0211C27.6137 28.2284 27.5497 28.4197 27.4915 28.5941 27.4337 28.7666 27.3783 28.9278 27.3261 29.0744H27.3002C27.2348 28.9049 27.168 28.7347 27.0984 28.5637 27.0288 28.3938 26.956 28.2212 26.8823 28.0473L25.7158 25.5309H24.8538zM33.9771 30.6066C33.8741 30.6557 33.7565 30.6993 33.6232 30.7357 33.4896 30.7719 33.3477 30.7997 33.1965 30.8197 33.0444 30.8403 32.8904 30.8501 32.7325 30.8501 32.2578 30.8475 31.8531 30.7515 31.5194 30.56 31.1857 30.3686 30.9301 30.0973 30.7532 29.7448 30.5765 29.3935 30.4874 28.9756 30.4863 28.4912 30.4874 28.1048 30.5426 27.7628 30.6502 27.4622 30.7587 27.1635 30.9143 26.9094 31.1142 26.7034 31.316 26.4959 31.557 26.3394 31.8373 26.2317 32.1184 26.1246 32.4303 26.071 32.7761 26.071 33.0212 26.0724 33.2429 26.0954 33.4416 26.1408 33.6408 26.1856 33.8103 26.2438 33.9509 26.3145L34.1424 25.6963C34.0756 25.6601 33.9787 25.6225 33.8523 25.5819 33.7262 25.5425 33.5713 25.508 33.3883 25.4802 33.2037 25.4512 32.9906 25.437 32.7494 25.4354 32.2928 25.437 31.8779 25.511 31.5032 25.6575 31.1289 25.8041 30.8067 26.0131 30.5354 26.2844 30.2641 26.5557 30.0552 26.8804 29.9086 27.2563 29.7607 27.6336 29.6869 28.0545 29.685 28.5171 29.6881 29.0004 29.7606 29.4269 29.9042 29.7982 30.048 30.1683 30.2495 30.4788 30.5111 30.7302 30.7708 30.9822 31.0755 31.1724 31.4262 31.3013 31.7761 31.4291 32.159 31.4945 32.5757 31.4945 32.8148 31.4931 33.0342 31.4799 33.2345 31.4539 33.4344 31.4266 33.6118 31.3916 33.7626 31.3496 33.9133 31.3074 34.0339 31.2638 34.1253 31.2158L33.9771 30.6066zM36.1966 31.3987H36.9628V26.1754H38.7566V25.5309H34.4124V26.1754H36.1966V31.3987zM41.7769 25.4268C41.3838 25.428 41.0211 25.5008 40.6916 25.6459 40.3609 25.7909 40.0752 25.9984 39.8314 26.2681 39.5875 26.5395 39.3992 26.8632 39.2654 27.2405 39.1304 27.6192 39.0624 28.0413 39.0608 28.5088 39.0624 28.9538 39.126 29.3585 39.2538 29.7242 39.3815 30.0887 39.5615 30.4032 39.7953 30.6678 40.029 30.9317 40.3075 31.1346 40.6292 31.2781 40.9513 31.4205 41.3068 31.4931 41.6987 31.4945 41.999 31.4945 42.2861 31.4509 42.5574 31.3653 42.8288 31.2812 43.0788 31.1534 43.3049 30.9853 43.5312 30.8169 43.7288 30.6096 43.8953 30.3601 44.0625 30.1119 44.193 29.8246 44.2842 29.4978 44.3755 29.1713 44.4222 28.8061 44.4233 28.404 44.4222 27.9643 44.3598 27.564 44.2362 27.2013 44.1133 26.8372 43.9359 26.5235 43.704 26.2596 43.4732 25.9943 43.1945 25.7895 42.8698 25.6459 42.5461 25.5019 42.1806 25.428 41.7769 25.4268zM41.7509 26.0446C42.0034 26.0462 42.2298 26.0912 42.4301 26.1814 42.6319 26.2698 42.8058 26.3929 42.9554 26.5483 43.105 26.7048 43.2297 26.885 43.3283 27.0879 43.4271 27.2911 43.501 27.5088 43.55 27.7379 43.598 27.9687 43.6228 28.2024 43.6228 28.439 43.6228 28.7741 43.5808 29.089 43.498 29.3821 43.415 29.6752 43.2933 29.9331 43.134 30.1567 42.9728 30.3802 42.7768 30.5558 42.5431 30.6836 42.3098 30.8095 42.0426 30.8737 41.7423 30.8767 41.5014 30.8749 41.2824 30.8331 41.0851 30.7501 40.8877 30.6659 40.7134 30.5497 40.5612 30.4006 40.4089 30.2511 40.2811 30.0755 40.1781 29.8768 40.0738 29.6764 39.9952 29.4589 39.9418 29.224 39.8896 28.989 39.8618 28.7449 39.8618 28.4912 39.8618 28.2344 39.8866 27.9849 39.9374 27.7451 39.9866 27.5058 40.0622 27.2825 40.1635 27.0766 40.2639 26.8718 40.3899 26.6918 40.5408 26.5369 40.6916 26.3829 40.869 26.2626 41.0707 26.1765 41.2723 26.0898 41.4983 26.0462 41.7509 26.0446zM45.407 31.3811C45.5334 31.3987 45.6958 31.4145 45.8931 31.4291 46.0907 31.4423 46.3215 31.4495 46.5823 31.4509 47.0615 31.4509 47.4677 31.4073 47.8014 31.3176 48.1363 31.2274 48.4035 31.0899 48.6022 30.9027 48.7559 30.7633 48.8796 30.5964 48.9691 30.4006 49.0593 30.2044 49.1054 29.9797 49.1073 29.7272 49.1054 29.5097 49.0678 29.3167 48.9969 29.1495 48.9243 28.983 48.8299 28.8376 48.7112 28.7189 48.592 28.5983 48.4628 28.5014 48.3207 28.4258 48.1799 28.3502 48.0377 28.2968 47.8972 28.2648V28.2386C48.1017 28.1647 48.2771 28.0631 48.4253 27.9353 48.573 27.8075 48.6875 27.6598 48.7675 27.4914 48.8473 27.3231 48.8879 27.1431 48.8893 26.9499 48.8879 26.7192 48.8431 26.5163 48.7559 26.3437 48.6676 26.171 48.547 26.0274 48.3933 25.9143 48.2757 25.8155 48.1407 25.7343 47.9886 25.6719 47.836 25.6095 47.6604 25.5632 47.4647 25.5328 47.2674 25.5019 47.0427 25.4873 46.7913 25.4873 46.6157 25.4873 46.4432 25.4934 46.2734 25.5036 46.1035 25.5152 45.9453 25.5298 45.7976 25.5497 45.648 25.569 45.5188 25.5922 45.407 25.6181V31.3811zM46.1644 26.1232C46.224 26.1086 46.3068 26.0972 46.414 26.0868 46.5213 26.0766 46.6623 26.071 46.8349 26.071 47.0918 26.0694 47.3165 26.1028 47.5067 26.1682 47.6985 26.2334 47.8476 26.3363 47.9536 26.4787 48.0596 26.6192 48.1133 26.8022 48.1145 27.0285 48.1145 27.2187 48.0637 27.3885 47.9638 27.5378 47.8638 27.6858 47.7198 27.8033 47.5315 27.8887 47.3444 27.9759 47.1178 28.0195 46.8525 28.0211H46.1644V26.1232zM46.1644 28.5869H46.7913C47.0002 28.5869 47.1948 28.6087 47.3775 28.6523 47.5591 28.6959 47.7198 28.7639 47.8592 28.8553 47.9983 28.9466 48.1073 29.0642 48.1859 29.2077 48.2641 29.3499 48.3047 29.5213 48.3061 29.7186 48.3047 29.9301 48.2625 30.1105 48.1813 30.2566 48.1001 30.4032 47.9886 30.5212 47.8476 30.6096 47.7052 30.6979 47.5459 30.7617 47.3659 30.8009 47.1862 30.8403 46.9972 30.8605 46.7999 30.8591 46.6654 30.8591 46.5448 30.8561 46.4402 30.8519 46.3342 30.8459 46.2428 30.8373 46.1644 30.8241V28.5869zM54.0691 30.6066C53.9661 30.6557 53.8485 30.6993 53.7154 30.7357 53.5816 30.7719 53.4397 30.7997 53.2885 30.8197 53.1363 30.8403 52.9826 30.8501 52.8244 30.8501 52.3497 30.8475 51.9451 30.7515 51.6113 30.56 51.2776 30.3686 51.0221 30.0973 50.8454 29.7448 50.6685 29.3935 50.5796 28.9756 50.5782 28.4912 50.5796 28.1048 50.6346 27.7628 50.7424 27.4622 50.8509 27.1635 51.0063 26.9094 51.2064 26.7034 51.408 26.4959 51.6489 26.3394 51.9293 26.2317 52.2104 26.1246 52.5223 26.071 52.868 26.071 53.1134 26.0724 53.3351 26.0954 53.5338 26.1408 53.7328 26.1856 53.9025 26.2438 54.0431 26.3145L54.2344 25.6963C54.1678 25.6601 54.0709 25.6225 53.9443 25.5819 53.8184 25.5425 53.6632 25.508 53.4802 25.4802 53.2956 25.4512 53.0825 25.437 52.8416 25.4354 52.3847 25.437 51.9699 25.511 51.5951 25.6575 51.2208 25.8041 50.8987 26.0131 50.6274 26.2844 50.3561 26.5557 50.1471 26.8804 50.0006 27.2563 49.8528 27.6336 49.7789 28.0545 49.7772 28.5171 49.78 29.0004 49.8528 29.4269 49.9964 29.7982 50.1399 30.1683 50.3415 30.4788 50.6031 30.7302 50.8628 30.9822 51.1675 31.1724 51.5184 31.3013 51.8683 31.4291 52.2509 31.4945 52.6677 31.4945 52.907 31.4931 53.1261 31.4799 53.3265 31.4539 53.5264 31.4266 53.7038 31.3916 53.8545 31.3496 54.0055 31.3074 54.1259 31.2638 54.2172 31.2158L54.0691 30.6066zM55.1745 25.5309V31.3987H55.9319V28.7087H56.1759C56.4224 28.7087 56.6343 28.7407 56.8113 28.8031 56.9868 28.8668 57.1378 28.9552 57.2612 29.0714 57.3843 29.1859 57.4889 29.3239 57.5745 29.4837 57.6617 29.643 57.7373 29.82 57.8038 30.0143 57.859 30.1699 57.9142 30.328 57.9692 30.489 58.0244 30.6515 58.0823 30.8095 58.1431 30.9651 58.2043 31.1188 58.2709 31.2638 58.3434 31.3987H59.1533C59.0703 31.2248 58.9935 31.0476 58.9237 30.8693 58.8541 30.6891 58.7876 30.5066 58.7208 30.3178 58.6542 30.1293 58.5828 29.9361 58.5088 29.7358 58.4362 29.537 58.3551 29.3529 58.2637 29.1834 58.1739 29.0134 58.0661 28.8624 57.9402 28.7305 57.8154 28.5983 57.6658 28.4882 57.4903 28.401 57.3147 28.3138 57.1058 28.2544 56.8635 28.2212L59.0835 25.5309H58.1781L56.1671 28.134H55.9319V25.5309H55.1745zM59.8928 25.5309V31.3987H60.7024L62.5393 28.4735C62.7426 28.1503 62.9372 27.8221 63.1255 27.49 63.3145 27.1577 63.4826 26.83 63.6276 26.5061L63.6535 26.5151C63.6336 26.7602 63.619 27.0051 63.6088 27.2503 63.5986 27.4972 63.593 27.7553 63.5886 28.0236 63.5856 28.2938 63.584 28.5851 63.584 28.9V31.3987H64.298V25.5309H63.5408L61.643 28.5519C61.4296 28.8988 61.2323 29.2337 61.0507 29.5558 60.8696 29.8768 60.7072 30.1901 60.5632 30.4934L60.537 30.4848C60.5547 30.2251 60.5679 29.9623 60.5776 29.6982 60.588 29.4341 60.5952 29.1627 60.6013 28.8831 60.6054 28.6027 60.6068 28.3096 60.6068 28.0037V25.5309H59.8928zM68.651 28.0211H66.3788V26.1668H68.7904V25.5309H65.6126V31.3987H68.921V30.7633H66.3788V28.6479H68.651V28.0211zM117.876 25.5309V31.3987H118.642V28.6479H121.48V31.3987H122.246V25.5309H121.48V27.9861H118.642V25.5309H117.876zM125.928 25.4268C125.535 25.428 125.172 25.5008 124.843 25.6459 124.512 25.7909 124.226 25.9984 123.983 26.2681 123.739 26.5395 123.55 26.8632 123.417 27.2405 123.282 27.6192 123.214 28.0413 123.212 28.5088 123.214 28.9538 123.277 29.3585 123.405 29.7242 123.533 30.0887 123.713 30.4032 123.946 30.6678 124.18 30.9317 124.459 31.1346 124.781 31.2781 125.103 31.4205 125.458 31.4931 125.85 31.4945 126.15 31.4945 126.437 31.4509 126.709 31.3653 126.98 31.2812 127.23 31.1534 127.456 30.9853 127.683 30.8169 127.88 30.6096 128.047 30.3601 128.214 30.1119 128.344 29.8246 128.435 29.4978 128.527 29.1713 128.573 28.8061 128.575 28.404 128.573 27.9643 128.511 27.564 128.388 27.2013 128.264 26.8372 128.087 26.5235 127.855 26.2596 127.624 25.9943 127.346 25.7895 127.021 25.6459 126.697 25.5019 126.332 25.428 125.928 25.4268zM125.902 26.0446C126.155 26.0462 126.381 26.0912 126.581 26.1814 126.783 26.2698 126.957 26.3929 127.106 26.5483 127.256 26.7048 127.381 26.885 127.48 27.0879 127.578 27.2911 127.652 27.5088 127.701 27.7379 127.749 27.9687 127.774 28.2024 127.774 28.439 127.774 28.7741 127.732 29.089 127.649 29.3821 127.566 29.6752 127.444 29.9331 127.285 30.1567 127.124 30.3802 126.928 30.5558 126.694 30.6836 126.461 30.8095 126.194 30.8737 125.893 30.8767 125.652 30.8749 125.434 30.8331 125.236 30.7501 125.039 30.6659 124.865 30.5497 124.713 30.4006 124.56 30.2511 124.432 30.0755 124.329 29.8768 124.225 29.6764 124.146 29.4589 124.093 29.224 124.041 28.989 124.013 28.7449 124.013 28.4912 124.013 28.2344 124.038 27.9849 124.089 27.7451 124.138 27.5058 124.214 27.2825 124.315 27.0766 124.415 26.8718 124.541 26.6918 124.692 26.5369 124.843 26.3829 125.02 26.2626 125.222 26.1765 125.424 26.0898 125.649 26.0462 125.902 26.0446zM129.088 25.5309L131.16 28.23C130.932 28.2588 130.737 28.3137 130.569 28.3968 130.404 28.4796 130.261 28.5851 130.14 28.7159 130.021 28.8467 129.917 28.9988 129.827 29.1713 129.739 29.3443 129.657 29.5359 129.585 29.7448 129.522 29.9275 129.461 30.1119 129.402 30.2977 129.344 30.4832 129.281 30.6678 129.216 30.8519 129.15 31.036 129.075 31.2188 128.993 31.3987H129.767C129.831 31.2668 129.889 31.1202 129.945 30.9604 129.998 30.8009 130.05 30.6411 130.1 30.4788 130.149 30.3165 130.197 30.1639 130.246 30.0233 130.314 29.8216 130.388 29.6418 130.467 29.4791 130.547 29.3179 130.641 29.1804 130.751 29.0658 130.861 28.951 130.998 28.8624 131.16 28.8014 131.321 28.7407 131.518 28.7087 131.752 28.7087H132.022V31.3987H132.753V28.7087H133.014C133.248 28.7087 133.446 28.7407 133.608 28.8014 133.769 28.8624 133.905 28.951 134.016 29.0658 134.126 29.1804 134.22 29.3179 134.3 29.4791 134.378 29.6418 134.453 29.8216 134.521 30.0233 134.567 30.1639 134.614 30.3165 134.663 30.4788 134.711 30.6411 134.763 30.8009 134.817 30.9604 134.872 31.1202 134.933 31.2668 134.999 31.3987H135.774C135.694 31.2188 135.622 31.036 135.56 30.8519 135.497 30.6678 135.436 30.4818 135.38 30.2946 135.323 30.1075 135.262 29.9218 135.199 29.7358 135.127 29.5257 135.046 29.3341 134.956 29.1597 134.866 28.986 134.76 28.8335 134.638 28.7015 134.516 28.5712 134.371 28.4652 134.203 28.3836 134.035 28.304 133.836 28.2514 133.607 28.23L135.687 25.5309H134.808L132.988 28.134H132.753V25.5309H132.022V28.134H131.787L129.967 25.5309H129.088zM136.531 25.5309V31.3987H137.341L139.178 28.4735C139.381 28.1503 139.576 27.8221 139.764 27.49 139.953 27.1577 140.121 26.83 140.266 26.5061L140.292 26.5151C140.272 26.7602 140.257 27.0051 140.247 27.2503 140.237 27.4972 140.231 27.7553 140.227 28.0236 140.224 28.2938 140.222 28.5851 140.222 28.9V31.3987H140.936V25.5309H140.179L138.281 28.5519C138.068 28.8988 137.871 29.2337 137.689 29.5558 137.508 29.8768 137.346 30.1901 137.202 30.4934L137.176 30.4848C137.193 30.2251 137.206 29.9623 137.216 29.6982 137.226 29.4341 137.234 29.1627 137.24 28.8831 137.244 28.6027 137.245 28.3096 137.245 28.0037V25.5309H136.531z" fill="#fff"/></symbol><symbol viewBox="0 0 74 78" fill="none" id="svg-simplicity"><path d="M22.3146 13.5635C21.6898 13.5635 21.1831 14.1084 21.1831 14.7808 21.1831 16.2575 20.0664 17.459 18.6939 17.459 17.3214 17.459 16.2047 16.2575 16.2047 14.7808 16.2047 13.3041 17.3214 12.1027 18.6939 12.1027 19.3187 12.1027 19.8254 11.5577 19.8254 10.8853 19.8254 10.2129 19.3189 9.66797 18.6939 9.66797 16.0736 9.66797 13.9419 11.9616 13.9419 14.7807 13.9419 17.5997 16.0737 19.8934 18.6939 19.8934 21.3141 19.8934 23.4459 17.5997 23.4459 14.7807 23.4461 14.1084 22.9394 13.5635 22.3146 13.5635zM22.3146 27.8465C21.6898 27.8465 21.1831 28.3915 21.1831 29.0639 21.1831 30.5406 20.0664 31.742 18.6939 31.742 17.3214 31.742 16.2047 30.5406 16.2047 29.0639 16.2047 27.5872 17.3214 26.3858 18.6939 26.3858 19.3187 26.3858 19.8254 25.8408 19.8254 25.1684 19.8254 24.496 19.3189 23.951 18.6939 23.951 16.0736 23.951 13.9419 26.2447 13.9419 29.0638 13.9419 31.8828 16.0737 34.1765 18.6939 34.1765 21.3141 34.1765 23.4459 31.8828 23.4459 29.0638 23.4461 28.3917 22.9394 27.8465 22.3146 27.8465zM40.6865 31.3079H32.2384C31.6136 31.3079 31.1069 31.8529 31.1069 32.5253 31.1069 33.1976 31.6135 33.7426 32.2384 33.7426H40.6865C41.3113 33.7426 41.818 33.1976 41.818 32.5253 41.818 31.8529 41.3115 31.3079 40.6865 31.3079zM40.6865 26.1139H32.2384C31.6136 26.1139 31.1069 26.6589 31.1069 27.3313 31.1069 28.0037 31.6135 28.5486 32.2384 28.5486H40.6865C41.3113 28.5486 41.818 28.0037 41.818 27.3313 41.818 26.6589 41.3115 26.1139 40.6865 26.1139zM38.2728 45.5909H32.2384C31.6136 45.5909 31.1069 46.1359 31.1069 46.8083 31.1069 47.4807 31.6135 48.0256 32.2384 48.0256H38.2728C38.8976 48.0256 39.4043 47.4807 39.4043 46.8083 39.4043 46.1359 38.8976 45.5909 38.2728 45.5909zM40.6865 40.3972H32.2384C31.6136 40.3972 31.1069 40.9421 31.1069 41.6145 31.1069 42.2869 31.6135 42.8318 32.2384 42.8318H40.6865C41.3113 42.8318 41.818 42.2869 41.818 41.6145 41.818 40.9421 41.3115 40.3972 40.6865 40.3972zM51.5483 17.0247H32.2384C31.6136 17.0247 31.1069 17.5696 31.1069 18.242 31.1069 18.9144 31.6135 19.4594 32.2384 19.4594H51.5482C52.173 19.4594 52.6797 18.9144 52.6797 18.242 52.6797 17.5696 52.1732 17.0247 51.5483 17.0247zM46.7208 11.8307H32.2384C31.6136 11.8307 31.1069 12.3757 31.1069 13.0481 31.1069 13.7205 31.6135 14.2655 32.2384 14.2655H46.7208C47.3456 14.2655 47.8523 13.7205 47.8523 13.0481 47.8523 12.3757 47.3458 11.8307 46.7208 11.8307zM22.3146 42.1297C21.6898 42.1297 21.1831 42.6747 21.1831 43.3471 21.1831 44.8238 20.0664 46.0252 18.6939 46.0252 17.3214 46.0252 16.2047 44.8238 16.2047 43.3471 16.2047 41.8704 17.3214 40.6689 18.6939 40.6689 19.3187 40.6689 19.8254 40.1239 19.8254 39.4516 19.8254 38.7792 19.3189 38.2342 18.6939 38.2342 16.0736 38.2342 13.9419 40.5279 13.9419 43.3469 13.9419 46.166 16.0737 48.4597 18.6939 48.4597 21.3141 48.4597 23.4459 46.166 23.4459 43.3469 23.4461 42.6747 22.9394 42.1297 22.3146 42.1297z" fill="#fff"/><path d="M58.487 0H4.65125C2.08667 0 0 1.71101 0 3.81425V58.3499C0 60.4531 2.08648 62.1641 4.65125 62.1641H31.5692C32.389 62.1641 33.0537 61.6191 33.0537 60.9468C33.0537 60.2745 32.3891 59.7294 31.5692 59.7294H4.65125C3.72356 59.7294 2.96881 59.1105 2.96881 58.3497V3.81425C2.96881 3.0535 3.72356 2.43457 4.65125 2.43457H58.487C59.4147 2.43457 60.1694 3.0535 60.1694 3.81425V44.067C60.1694 44.7392 60.834 45.2843 61.6539 45.2843C62.4737 45.2843 63.1384 44.7393 63.1384 44.067V3.81425C63.1382 1.71101 61.0518 0 58.487 0Z" fill="#fff"/><path d="M70.2756 49.3646C69.224 49.2518 68.1729 49.5725 67.3411 50.252C66.6785 49.0558 65.5485 48.2071 64.2412 48.0662C63.1893 47.9535 62.1384 48.2742 61.3067 48.9536C60.6441 47.7573 59.5142 46.9086 58.2068 46.7677C57.4038 46.6815 56.6019 46.8479 55.8972 47.2338V31.7314C55.8972 30.4727 55.3995 29.2661 54.5314 28.4211C53.6641 27.5768 52.4954 27.1647 51.3247 27.2907C49.236 27.5158 47.6 29.5476 47.6 31.9166V47.4582L44.274 51.0366C42.5066 52.9382 41.7931 55.6362 42.3657 58.2541L44.8908 69.8001C45.9139 74.4786 49.7483 77.7461 54.2155 77.7461H64.4206C69.7027 77.7461 74.0001 73.1226 74.0001 67.4395V53.9908C74.0003 51.6215 72.3642 49.5897 70.2756 49.3646ZM71.7373 67.4392C71.7373 71.7797 68.4551 75.3111 64.4207 75.3111H54.2157C50.8037 75.3111 47.8749 72.8155 47.0935 69.242L44.5684 57.696C44.1766 55.905 44.6648 54.0588 45.8741 52.7578L47.6 50.9009V55.1037C47.6 55.7759 48.1065 56.3211 48.7315 56.3211C49.3564 56.3211 49.8629 55.7761 49.8629 55.1037V31.9165C49.8629 30.7829 50.604 29.8151 51.5504 29.7133C52.0939 29.6545 52.6137 29.8371 53.0134 30.2264C53.4081 30.6107 53.6345 31.1594 53.6345 31.7315V53.1562C53.6345 53.8285 54.141 54.3736 54.766 54.3736C55.3909 54.3736 55.8975 53.8286 55.8975 53.1562V51.2085C55.8975 50.6363 56.1237 50.0877 56.5186 49.7034C56.9186 49.3141 57.4381 49.1314 57.9816 49.1903C58.9278 49.2922 59.669 50.2601 59.669 51.3936V54.4544C59.669 55.1266 60.1755 55.6718 60.8005 55.6718C61.4253 55.6718 61.932 55.1268 61.932 54.4544V52.5066C61.932 51.9345 62.1582 51.3859 62.5531 51.0015C62.9531 50.6122 63.4727 50.4297 64.0161 50.4884C64.9623 50.5903 65.7035 51.5582 65.7035 52.6917V55.7527C65.7035 56.4249 66.21 56.97 66.835 56.97C67.4598 56.97 67.9665 56.4251 67.9665 55.7527V53.8049C67.9665 53.2328 68.1927 52.6842 68.5876 52.2998C68.9876 51.9106 69.5068 51.7278 70.0506 51.7869C70.9968 51.8886 71.738 52.8565 71.738 53.99V67.4392H71.7373Z" fill="#fff"/></symbol><symbol viewBox="0 0 64 64" fill="none" id="svg-warranty"><path d="M63.2242 35.1929C62.8667 33.9138 62.53 32.7047 62.53 31.6014C62.53 30.4981 62.8667 29.289 63.2242 28.0098C63.7932 25.9736 64.3803 23.8673 63.6777 21.8201C62.9487 19.6904 61.1318 18.2986 59.3748 16.9548C58.3216 16.1483 57.3269 15.3871 56.6814 14.549C56.0248 13.6944 55.5601 12.554 55.0704 11.3463C54.2621 9.36225 53.4274 7.30954 51.5576 6.02075C49.7185 4.7512 47.423 4.62891 45.2068 4.51213C43.824 4.43931 42.5162 4.36923 41.4214 4.03261C40.3975 3.71797 39.3374 3.06533 38.2161 2.37423C36.4117 1.26131 34.3652 0 31.9988 0C29.6324 0 27.5859 1.26131 25.7816 2.3756C24.6602 3.06671 23.6029 3.72072 22.5776 4.03399C21.4814 4.37061 20.1736 4.44068 18.7908 4.5135C16.5732 4.63166 14.2805 4.75257 12.44 6.02212C10.5702 7.31091 9.7355 9.36225 8.92722 11.3463C8.43473 12.554 7.97008 13.6958 7.31343 14.5504C6.66792 15.3912 5.67321 16.1524 4.62008 16.9603C2.86439 18.3054 1.05027 19.6945 0.321281 21.8214C-0.381273 23.87 0.205812 25.975 0.77342 28.0126C1.13096 29.2917 1.46763 30.4995 1.46763 31.6028C1.46763 32.7061 1.13096 33.9151 0.77342 35.1943C0.205812 37.2305 -0.381273 39.3368 0.321281 41.3868C1.05027 43.5137 2.86578 44.9056 4.62147 46.2493C5.6746 47.0545 6.66931 47.817 7.31343 48.6551C7.97147 49.5097 8.43613 50.6501 8.92722 51.8592C9.7355 53.8433 10.5716 55.896 12.4428 57.1875C14.2805 58.4543 16.5746 58.5752 18.7908 58.692C20.1736 58.7648 21.4814 58.8349 22.5762 59.1715C23.6002 59.4862 24.6589 60.1388 25.7788 60.8285C27.5845 61.9401 29.631 63.2028 31.9988 63.2028C34.3666 63.2028 36.4145 61.9401 38.2216 60.8272C39.3415 60.1374 40.3988 59.4848 41.4242 59.1701C42.519 58.8335 43.8268 58.7635 45.2096 58.6906C47.4272 58.5738 49.7199 58.4529 51.5576 57.1861C53.4316 55.8946 54.2663 53.8391 55.0746 51.8537C55.5657 50.6474 56.0289 49.507 56.6828 48.6551C57.3283 47.817 58.323 47.0545 59.3761 46.2493C61.1332 44.9042 62.9487 43.5137 63.6791 41.3854C64.3817 39.3355 63.7932 37.2305 63.2242 35.1929ZM61.0426 40.5047C60.5821 41.8485 59.1673 42.9312 57.6704 44.0771C56.5226 44.9564 55.3345 45.866 54.4664 46.9926C53.5858 48.1413 53.0293 49.507 52.4909 50.8301C51.8051 52.5174 51.1568 54.1098 49.9645 54.9314C48.7765 55.7503 46.9721 55.8451 45.0606 55.9454C43.5678 56.0237 42.0222 56.1048 40.5948 56.5445C39.2301 56.9663 37.9669 57.7426 36.7468 58.4955C35.1121 59.504 33.5693 60.4548 31.9986 60.4548C30.428 60.4548 28.8865 59.504 27.2519 58.4955C26.0332 57.744 24.7714 56.9663 23.4052 56.5445C21.9778 56.1062 20.4322 56.0237 18.9395 55.9454C17.028 55.8451 15.2222 55.749 14.0355 54.9314C12.8447 54.1098 12.195 52.5174 11.5091 50.8315C10.9707 49.5084 10.4128 48.1413 9.53082 46.9926C8.66411 45.866 7.47603 44.9564 6.3269 44.0757C4.83136 42.9298 3.41791 41.8485 2.95742 40.5047C2.52754 39.253 2.97968 37.6345 3.45686 35.9225C3.8464 34.5224 4.24984 33.077 4.24984 31.6C4.24984 30.123 3.8464 28.6789 3.45686 27.2789C2.97829 25.5669 2.52754 23.9497 2.95742 22.698C3.41791 21.3543 4.82997 20.273 6.32551 19.1271C7.47464 18.2464 8.66411 17.3354 9.52943 16.2074C10.4142 15.0587 10.9707 13.6903 11.5105 12.3671C12.195 10.6813 12.8433 9.09021 14.0327 8.27132C15.2208 7.45106 17.028 7.35625 18.9409 7.25595C20.4322 7.17626 21.9778 7.0952 23.4038 6.65553C24.7714 6.23509 26.0346 5.45605 27.256 4.70311C28.8879 3.69874 30.4294 2.74795 31.9986 2.74795C33.5679 2.74795 35.1107 3.69874 36.744 4.70586C37.9655 5.46017 39.2273 6.23784 40.5948 6.65827C42.0208 7.09657 43.565 7.17764 45.0578 7.25733C46.9707 7.35763 48.7765 7.45518 49.9645 8.27407C51.1554 9.0957 51.8037 10.6868 52.4882 12.3699C53.0279 13.6944 53.583 15.0615 54.4678 16.2101C55.3345 17.3368 56.5226 18.2464 57.6704 19.1257C59.1673 20.273 60.5821 21.3557 61.0426 22.7022C61.4725 23.9511 61.019 25.5683 60.5418 27.2802C60.1509 28.6803 59.7474 30.1257 59.7474 31.6028C59.7474 33.0798 60.1495 34.5252 60.5418 35.9239C61.0205 37.6359 61.4725 39.253 61.0426 40.5047Z" fill="#fff"/><path d="M31.9988 10.9909C20.4922 10.9909 11.1309 20.2364 11.1309 31.6005C11.1309 42.9647 20.4922 52.2102 31.9988 52.2102C43.5054 52.2102 52.8667 42.9647 52.8667 31.6005C52.8667 20.2364 43.5054 10.9909 31.9988 10.9909ZM31.9988 49.4622C22.0267 49.4622 13.9133 41.4492 13.9133 31.6005C13.9133 21.7519 22.0267 13.7389 31.9988 13.7389C37.142 13.7389 41.7789 15.8809 45.076 19.2966L31.8179 37.723L24.6352 30.6291C24.0912 30.0919 23.212 30.0919 22.668 30.6291C22.1241 31.1664 22.1241 32.0347 22.668 32.5719L31.0152 40.8158C31.2768 41.0755 31.6315 41.2184 31.9988 41.2184C32.0364 41.2184 32.0767 41.217 32.1157 41.2129C32.5233 41.1799 32.8961 40.9697 33.1326 40.6399L46.9013 21.5032C48.9046 24.3776 50.0843 27.8537 50.0843 31.6005C50.0843 41.4492 41.9709 49.4622 31.9988 49.4622Z" fill="#fff"/></symbol></svg>